<svg width="60" height="60" viewBox="0 0 60 60" fill="none" xmlns="http://www.w3.org/2000/svg">
<path fill-rule="evenodd" clip-rule="evenodd" d="M39.2098 0H20.7905C3.98033 0 0 3.98025 0 20.7905V39.2095C0 56.0197 3.98033 60 20.7905 60H39.2098C56.0198 60 60 56.0197 60 39.2095V20.7905C60 3.98025 56.0198 0 39.2098 0Z" fill="#EA762C"/>
<mask id="mask0_55_335" style="mask-type:alpha" maskUnits="userSpaceOnUse" x="0" y="0" width="60" height="60">
<path fill-rule="evenodd" clip-rule="evenodd" d="M39.2098 0H20.7905C3.98033 0 0 3.98025 0 20.7905V39.2095C0 56.0197 3.98033 60 20.7905 60H39.2098C56.0198 60 60 56.0197 60 39.2095V20.7905C60 3.98025 56.0198 0 39.2098 0Z" fill="#EA762C"/>
</mask>
<g mask="url(#mask0_55_335)">
<path d="M5.34692 16L42.0136 13.3334L62.0136 60.0001H16.0136C16.0079 49.5325 15.6614 38.7165 15.3469 34C14.6803 24 8.01359 18 5.34692 16Z" fill="#C9BDBD"/>
<path d="M11.9889 8.1005C32.9132 7.46404 47.0191 9.85546 66.6556 15.4338L67.9889 61.4338L23.3222 60.7672V33.4338C23.3222 24.7672 19.3222 12.1005 11.9889 8.1005Z" fill="#F3F3F3"/>
<path opacity="0.3" d="M33.321 24.0004C42.659 25.2221 57.0247 26.6126 59.9877 26.6126M33.321 35.1024C43.4023 35.8943 54.8025 36.4085 59.9877 36.4085M33.321 45.5514H59.9877M33.321 56.0004L59.9877 54.6942" stroke="#353433" stroke-width="2"/>
</g>
</svg>
