<svg width="76" height="65" viewBox="0 0 76 65" fill="none" xmlns="http://www.w3.org/2000/svg">
<path d="M4 63.5C10.911 62.9241 14 55.6151 14 52.0156L29 52C24.5 65 9 65 4 65V63.5Z" fill="#FFCB00"/>
<rect width="66" height="52" rx="12" fill="#FFCB00"/>
<g filter="url(#filter0_b_55_351)">
<mask id="path-3-inside-1_55_351" fill="white">
<path fill-rule="evenodd" clip-rule="evenodd" d="M67.75 43C67.75 43.6233 67.695 44.21 67.6217 44.7966L71.49 47.8216C71.8383 48.0966 71.93 48.5916 71.71 48.995L68.0433 55.3383C67.8233 55.7416 67.3467 55.9066 66.925 55.7416L62.36 53.9083C61.4067 54.6233 60.38 55.2466 59.2617 55.705L58.565 60.5633C58.51 61.0033 58.125 61.3333 57.6667 61.3333H50.3333C49.875 61.3333 49.49 61.0033 49.435 60.5633L48.7383 55.705C47.62 55.2466 46.5933 54.6416 45.64 53.9083L41.075 55.7416C40.6717 55.8883 40.1767 55.7416 39.9567 55.3383L36.29 48.995C36.07 48.5916 36.1617 48.0966 36.51 47.8216L40.3783 44.7966C40.305 44.21 40.25 43.605 40.25 43C40.25 42.395 40.305 41.79 40.3783 41.2033L36.51 38.1783C36.1617 37.9033 36.0517 37.4083 36.29 37.005L39.9567 30.6616C40.1767 30.2583 40.6533 30.0933 41.075 30.2583L45.64 32.0916C46.5933 31.3766 47.62 30.7533 48.7383 30.295L49.435 25.4366C49.49 24.9966 49.875 24.6666 50.3333 24.6666H57.6667C58.125 24.6666 58.51 24.9966 58.565 25.4366L59.2617 30.295C60.38 30.7533 61.4067 31.3583 62.36 32.0916L66.925 30.2583C67.3283 30.1116 67.8233 30.2583 68.0433 30.6616L71.71 37.005C71.93 37.4083 71.8383 37.9033 71.49 38.1783L67.6217 41.2033C67.695 41.79 67.75 42.3766 67.75 43ZM47.5833 43C47.5833 46.5383 50.4617 49.4166 54 49.4166C57.5383 49.4166 60.4167 46.5383 60.4167 43C60.4167 39.4616 57.5383 36.5833 54 36.5833C50.4617 36.5833 47.5833 39.4616 47.5833 43Z"/>
</mask>
<path fill-rule="evenodd" clip-rule="evenodd" d="M67.75 43C67.75 43.6233 67.695 44.21 67.6217 44.7966L71.49 47.8216C71.8383 48.0966 71.93 48.5916 71.71 48.995L68.0433 55.3383C67.8233 55.7416 67.3467 55.9066 66.925 55.7416L62.36 53.9083C61.4067 54.6233 60.38 55.2466 59.2617 55.705L58.565 60.5633C58.51 61.0033 58.125 61.3333 57.6667 61.3333H50.3333C49.875 61.3333 49.49 61.0033 49.435 60.5633L48.7383 55.705C47.62 55.2466 46.5933 54.6416 45.64 53.9083L41.075 55.7416C40.6717 55.8883 40.1767 55.7416 39.9567 55.3383L36.29 48.995C36.07 48.5916 36.1617 48.0966 36.51 47.8216L40.3783 44.7966C40.305 44.21 40.25 43.605 40.25 43C40.25 42.395 40.305 41.79 40.3783 41.2033L36.51 38.1783C36.1617 37.9033 36.0517 37.4083 36.29 37.005L39.9567 30.6616C40.1767 30.2583 40.6533 30.0933 41.075 30.2583L45.64 32.0916C46.5933 31.3766 47.62 30.7533 48.7383 30.295L49.435 25.4366C49.49 24.9966 49.875 24.6666 50.3333 24.6666H57.6667C58.125 24.6666 58.51 24.9966 58.565 25.4366L59.2617 30.295C60.38 30.7533 61.4067 31.3583 62.36 32.0916L66.925 30.2583C67.3283 30.1116 67.8233 30.2583 68.0433 30.6616L71.71 37.005C71.93 37.4083 71.8383 37.9033 71.49 38.1783L67.6217 41.2033C67.695 41.79 67.75 42.3766 67.75 43ZM47.5833 43C47.5833 46.5383 50.4617 49.4166 54 49.4166C57.5383 49.4166 60.4167 46.5383 60.4167 43C60.4167 39.4616 57.5383 36.5833 54 36.5833C50.4617 36.5833 47.5833 39.4616 47.5833 43Z" fill="white" fill-opacity="0.3"/>
<path d="M67.6217 44.7966L66.6294 44.6726L66.5591 45.2351L67.0057 45.5844L67.6217 44.7966ZM71.49 47.8216L72.1097 47.0367L72.106 47.0339L71.49 47.8216ZM71.71 48.995L72.5758 49.4954L72.582 49.4847L72.5879 49.4738L71.71 48.995ZM68.0433 55.3383L67.1776 54.8378L67.1714 54.8486L67.1654 54.8594L68.0433 55.3383ZM66.925 55.7416L66.5523 56.6696L66.5606 56.6729L66.925 55.7416ZM62.36 53.9083L62.7327 52.9803L62.2103 52.7705L61.76 53.1083L62.36 53.9083ZM59.2617 55.705L58.8825 54.7797L58.353 54.9966L58.2718 55.563L59.2617 55.705ZM58.565 60.5633L57.5751 60.4213L57.5739 60.4303L57.5727 60.4393L58.565 60.5633ZM49.435 60.5633L50.4273 60.4393L50.4262 60.4303L50.4249 60.4213L49.435 60.5633ZM48.7383 55.705L49.7282 55.563L49.647 54.9966L49.1176 54.7797L48.7383 55.705ZM45.64 53.9083L46.2497 53.1157L45.7972 52.7675L45.2673 52.9803L45.64 53.9083ZM41.075 55.7416L41.4168 56.6814L41.4323 56.6758L41.4477 56.6696L41.075 55.7416ZM39.9567 55.3383L40.8346 54.8594L40.8286 54.8486L40.8224 54.8378L39.9567 55.3383ZM36.29 48.995L35.4121 49.4738L35.418 49.4847L35.4242 49.4954L36.29 48.995ZM36.51 47.8216L35.894 47.0339L35.8904 47.0367L36.51 47.8216ZM40.3783 44.7966L40.9944 45.5844L41.4409 45.2351L41.3706 44.6726L40.3783 44.7966ZM40.3783 41.2033L41.3706 41.3273L41.4409 40.7648L40.9944 40.4156L40.3783 41.2033ZM36.51 38.1783L35.8904 38.9632L35.894 38.966L36.51 38.1783ZM36.29 37.005L37.151 37.5137L37.1558 37.5054L36.29 37.005ZM39.9567 30.6616L40.8224 31.1621L40.8286 31.1513L40.8346 31.1405L39.9567 30.6616ZM41.075 30.2583L41.4477 29.3303L41.4394 29.327L41.075 30.2583ZM45.64 32.0916L45.2673 33.0196L45.7897 33.2294L46.24 32.8916L45.64 32.0916ZM48.7383 30.295L49.1176 31.2203L49.647 31.0033L49.7282 30.4369L48.7383 30.295ZM49.435 25.4366L50.4249 25.5786L50.4262 25.5696L50.4273 25.5607L49.435 25.4366ZM58.565 25.4366L57.5727 25.5607L57.5739 25.5696L57.5751 25.5786L58.565 25.4366ZM59.2617 30.295L58.2718 30.4369L58.353 31.0033L58.8825 31.2203L59.2617 30.295ZM62.36 32.0916L61.7503 32.8843L62.2029 33.2324L62.7327 33.0196L62.36 32.0916ZM66.925 30.2583L66.5833 29.3185L66.5677 29.3242L66.5523 29.3303L66.925 30.2583ZM68.0433 30.6616L67.1654 31.1405L67.1714 31.1513L67.1776 31.1621L68.0433 30.6616ZM71.71 37.005L72.5879 36.5261L72.582 36.5152L72.5758 36.5045L71.71 37.005ZM71.49 38.1783L72.106 38.966L72.1096 38.9632L71.49 38.1783ZM67.6217 41.2033L67.0057 40.4156L66.5591 40.7648L66.6294 41.3273L67.6217 41.2033ZM68.614 44.9207C68.6897 44.3145 68.75 43.682 68.75 43H66.75C66.75 43.5646 66.7003 44.1055 66.6294 44.6726L68.614 44.9207ZM72.106 47.0339L68.2377 44.0089L67.0057 45.5844L70.874 48.6094L72.106 47.0339ZM72.5879 49.4738C73.027 48.6687 72.8634 47.6318 72.1096 47.0367L70.8704 48.6065C70.8451 48.5865 70.8333 48.5607 70.8301 48.5438C70.8271 48.5278 70.831 48.5182 70.8321 48.5161L72.5879 49.4738ZM68.9091 55.8387L72.5758 49.4954L70.8442 48.4945L67.1776 54.8378L68.9091 55.8387ZM66.5606 56.6729C67.4397 57.0169 68.4542 56.6733 68.9212 55.8171L67.1654 54.8594C67.1761 54.84 67.1978 54.8205 67.2242 54.8111C67.2491 54.8022 67.2731 54.804 67.2894 54.8104L66.5606 56.6729ZM61.9873 54.8363L66.5523 56.6696L67.2977 54.8137L62.7327 52.9803L61.9873 54.8363ZM59.6409 56.6303C60.8547 56.1328 61.955 55.4621 62.96 54.7083L61.76 53.1083C60.8584 53.7845 59.9053 54.3604 58.8825 54.7797L59.6409 56.6303ZM59.5549 60.7052L60.2516 55.8469L58.2718 55.563L57.5751 60.4213L59.5549 60.7052ZM57.6667 62.3333C58.6032 62.3333 59.4365 61.6533 59.5573 60.6873L57.5727 60.4393C57.5777 60.3996 57.5978 60.3699 57.6163 60.354C57.6343 60.3386 57.6535 60.3333 57.6667 60.3333V62.3333ZM50.3333 62.3333H57.6667V60.3333H50.3333V62.3333ZM48.4427 60.6873C48.5635 61.6533 49.3969 62.3333 50.3333 62.3333V60.3333C50.3466 60.3333 50.3657 60.3386 50.3837 60.354C50.4022 60.3699 50.4223 60.3996 50.4273 60.4393L48.4427 60.6873ZM47.7485 55.8469L48.4451 60.7052L50.4249 60.4213L49.7282 55.563L47.7485 55.8469ZM45.0303 54.7009C46.0489 55.4844 47.1524 56.1357 48.3591 56.6303L49.1176 54.7797C48.0876 54.3576 47.1378 53.7988 46.2497 53.1157L45.0303 54.7009ZM41.4477 56.6696L46.0127 54.8363L45.2673 52.9803L40.7023 54.8137L41.4477 56.6696ZM39.0788 55.8171C39.5626 56.7041 40.604 56.977 41.4168 56.6814L40.7333 54.8018C40.7442 54.7979 40.7517 54.7972 40.7557 54.7972C40.7595 54.7972 40.7639 54.7977 40.7698 54.7997C40.7759 54.8018 40.7866 54.8066 40.7993 54.817C40.8128 54.828 40.8255 54.8428 40.8346 54.8594L39.0788 55.8171ZM35.4242 49.4954L39.0909 55.8387L40.8224 54.8378L37.1558 48.4945L35.4242 49.4954ZM35.8904 47.0367C35.1366 47.6318 34.973 48.6687 35.4121 49.4738L37.1679 48.5161C37.169 48.5182 37.1729 48.5278 37.1699 48.5438C37.1667 48.5607 37.155 48.5865 37.1297 48.6065L35.8904 47.0367ZM39.7623 44.0089L35.894 47.0339L37.126 48.6094L40.9944 45.5844L39.7623 44.0089ZM39.25 43C39.25 43.663 39.3102 44.3135 39.3861 44.9207L41.3706 44.6726C41.2998 44.1064 41.25 43.5469 41.25 43H39.25ZM39.3861 41.0793C39.3102 41.6864 39.25 42.3369 39.25 43H41.25C41.25 42.453 41.2998 41.8935 41.3706 41.3273L39.3861 41.0793ZM35.894 38.966L39.7623 41.991L40.9944 40.4156L37.126 37.3906L35.894 38.966ZM35.4291 36.4962C34.9264 37.3469 35.1645 38.3901 35.8904 38.9632L37.1297 37.3934C37.1453 37.4057 37.1567 37.4241 37.161 37.4457C37.1659 37.4707 37.1606 37.4973 37.1509 37.5137L35.4291 36.4962ZM39.0909 30.1612L35.4242 36.5045L37.1558 37.5054L40.8224 31.1621L39.0909 30.1612ZM41.4394 29.327C40.5603 28.9831 39.5458 29.3266 39.0788 30.1828L40.8346 31.1405C40.824 31.1599 40.8022 31.1794 40.7759 31.1888C40.7509 31.1977 40.7269 31.1959 40.7106 31.1895L41.4394 29.327ZM46.0127 31.1637L41.4477 29.3303L40.7023 31.1863L45.2673 33.0196L46.0127 31.1637ZM48.3591 29.3697C47.1453 29.8671 46.045 30.5379 45.04 31.2916L46.24 32.8916C47.1416 32.2154 48.0947 31.6395 49.1176 31.2203L48.3591 29.3697ZM48.4451 25.2947L47.7485 30.153L49.7282 30.4369L50.4249 25.5786L48.4451 25.2947ZM50.3333 23.6666C49.3969 23.6666 48.5635 24.3466 48.4427 25.3126L50.4273 25.5607C50.4223 25.6003 50.4022 25.6301 50.3837 25.6459C50.3657 25.6613 50.3466 25.6666 50.3333 25.6666V23.6666ZM57.6667 23.6666H50.3333V25.6666H57.6667V23.6666ZM59.5573 25.3126C59.4365 24.3466 58.6032 23.6666 57.6667 23.6666V25.6666C57.6535 25.6666 57.6343 25.6613 57.6163 25.6459C57.5978 25.6301 57.5777 25.6003 57.5727 25.5607L59.5573 25.3126ZM60.2516 30.153L59.5549 25.2947L57.5751 25.5786L58.2718 30.4369L60.2516 30.153ZM62.9697 31.299C61.9512 30.5155 60.8476 29.8642 59.6409 29.3697L58.8825 31.2203C59.9124 31.6424 60.8622 32.2011 61.7503 32.8843L62.9697 31.299ZM66.5523 29.3303L61.9873 31.1637L62.7327 33.0196L67.2977 31.1863L66.5523 29.3303ZM68.9212 30.1828C68.4374 29.2958 67.396 29.023 66.5833 29.3185L67.2668 31.1981C67.2558 31.2021 67.2483 31.2027 67.2443 31.2027C67.2405 31.2027 67.2361 31.2022 67.2303 31.2002C67.2241 31.1981 67.2135 31.1934 67.2007 31.183C67.1872 31.1719 67.1745 31.1571 67.1654 31.1405L68.9212 30.1828ZM72.5758 36.5045L68.9091 30.1612L67.1776 31.1621L70.8442 37.5054L72.5758 36.5045ZM72.1096 38.9632C72.8634 38.3681 73.0271 37.3312 72.5879 36.5261L70.8321 37.4838C70.831 37.4818 70.8271 37.4721 70.8301 37.4561C70.8333 37.4392 70.8451 37.4134 70.8704 37.3934L72.1096 38.9632ZM68.2377 41.991L72.106 38.966L70.874 37.3906L67.0057 40.4156L68.2377 41.991ZM68.75 43C68.75 42.318 68.6897 41.6855 68.614 41.0793L66.6294 41.3273C66.7003 41.8945 66.75 42.4353 66.75 43H68.75ZM54 48.4166C51.014 48.4166 48.5833 45.986 48.5833 43H46.5833C46.5833 47.0906 49.9094 50.4166 54 50.4166V48.4166ZM59.4167 43C59.4167 45.986 56.9861 48.4166 54 48.4166V50.4166C58.0906 50.4166 61.4167 47.0906 61.4167 43H59.4167ZM54 37.5833C56.9861 37.5833 59.4167 40.0139 59.4167 43H61.4167C61.4167 38.9093 58.0906 35.5833 54 35.5833V37.5833ZM48.5833 43C48.5833 40.0139 51.014 37.5833 54 37.5833V35.5833C49.9094 35.5833 46.5833 38.9093 46.5833 43H48.5833Z" fill="url(#paint0_linear_55_351)" mask="url(#path-3-inside-1_55_351)"/>
</g>
<defs>
<filter id="filter0_b_55_351" x="26.1629" y="14.6666" width="55.6661" height="56.6666" filterUnits="userSpaceOnUse" color-interpolation-filters="sRGB">
<feFlood flood-opacity="0" result="BackgroundImageFix"/>
<feGaussianBlur in="BackgroundImageFix" stdDeviation="5"/>
<feComposite in2="SourceAlpha" operator="in" result="effect1_backgroundBlur_55_351"/>
<feBlend mode="normal" in="SourceGraphic" in2="effect1_backgroundBlur_55_351" result="shape"/>
</filter>
<linearGradient id="paint0_linear_55_351" x1="69.5442" y1="39.486" x2="36.5222" y2="39.4011" gradientUnits="userSpaceOnUse">
<stop stop-color="#FFCB00"/>
<stop offset="1" stop-color="#EA762C"/>
</linearGradient>
</defs>
</svg>
