<svg width="45" height="45" viewBox="0 0 45 45" fill="none" xmlns="http://www.w3.org/2000/svg">
<g clip-path="url(#clip0_13_307)">
<path d="M0 21.5955C0 11.4196 0 6.33166 3.16583 3.16583C6.33166 0 11.4196 0 21.5955 0H23.4045C33.5804 0 38.6683 0 41.8342 3.16583C45 6.33166 45 11.4196 45 21.5955V23.4045C45 33.5804 45 38.6683 41.8342 41.8342C38.6683 45 33.5804 45 23.4045 45H21.5955C11.4196 45 6.33166 45 3.16583 41.8342C0 38.6683 0 33.5804 0 23.4045V21.5955Z" fill="#FF8800" fill-opacity="0.1"/>
<path d="M27.8588 19.6281C26.4794 21.0075 24.5799 21.8668 22.4769 21.8668C20.3739 21.8668 18.4744 21.0075 17.095 19.6281C15.7156 18.2487 14.8563 16.3492 14.8563 14.2462C14.8563 12.1432 15.7156 10.2437 17.095 8.8643C18.4744 7.48491 20.3739 6.62561 22.4769 6.62561C24.5799 6.62561 26.4794 7.48491 27.8588 8.8643C29.2382 10.2437 30.0975 12.1432 30.0975 14.2462C30.0975 16.3492 29.2382 18.2487 27.8588 19.6281ZM22.4769 10.7638C21.5272 10.7638 20.6679 11.1482 20.0347 11.7814C19.4015 12.4146 19.0171 13.2739 19.0171 14.2236C19.0171 15.1733 19.4015 16.0326 20.0347 16.6658C20.6679 17.299 21.5272 17.6834 22.4769 17.6834C23.4266 17.6834 24.2859 17.299 24.9191 16.6658C25.5523 16.0326 25.9367 15.1733 25.9367 14.2236C25.9367 13.2739 25.5523 12.4146 24.9191 11.7814C24.2859 11.1708 23.4266 10.7638 22.4769 10.7638ZM30.4819 21.8894L32.7206 24.9422C32.8337 25.1005 32.8111 25.304 32.6528 25.4171C30.7759 26.9548 28.5824 27.9723 26.2985 28.5151L30.6176 36.8367C30.7307 37.0854 30.5724 37.3568 30.301 37.3568H25.688C25.5523 37.3568 25.4166 37.2663 25.3488 37.1306L22.4769 30.2563L19.5824 37.108C19.5372 37.2437 19.4015 37.3342 19.2432 37.3342H14.6302C14.3588 37.3342 14.2005 37.0402 14.3136 36.8141L18.6327 28.5151C16.3488 27.9723 14.1779 26.9548 12.2784 25.4171C12.1427 25.304 12.0975 25.0779 12.2106 24.9422L14.4493 21.8894C14.5849 21.7085 14.8111 21.6859 14.9694 21.8216C17.0724 23.608 19.6729 24.7839 22.4543 24.7839C25.2357 24.7839 27.8136 23.6306 29.9392 21.8216C30.1201 21.6859 30.3689 21.7085 30.4819 21.8894Z" fill="#FF8800"/>
</g>
<defs>
<clipPath id="clip0_13_307">
<rect width="45" height="45" fill="white"/>
</clipPath>
</defs>
</svg>
