<svg width="45" height="45" viewBox="0 0 45 45" fill="none" xmlns="http://www.w3.org/2000/svg">
<path opacity="0.5" fill-rule="evenodd" clip-rule="evenodd" d="M29.4073 0H15.5928C2.98524 0 0 2.98519 0 15.5929V29.4071C0 42.0148 2.98524 45 15.5928 45H29.4073C42.0148 45 45 42.0148 45 29.4071V15.5929C45 2.98519 42.0148 0 29.4073 0Z" fill="#818181"/>
<path d="M26.5785 16.5237H14V30.9999H17.501V26.2902H24.2094L27.2702 30.9999H31.1905L27.8153 26.2686C28.8635 26.095 29.6182 25.6826 30.0794 25.0314C30.5406 24.3804 30.7712 23.3386 30.7712 21.9496V20.8644C30.7712 20.0396 30.6874 19.3886 30.5406 18.8893C30.3938 18.3902 30.1423 17.9561 29.7859 17.5654C29.4085 17.1965 28.9893 16.9361 28.4861 16.7624C27.983 16.6105 27.354 16.5237 26.5785 16.5237ZM26.0124 23.0998H17.501V19.7141H26.0124C26.4946 19.7141 26.83 19.8009 26.9977 19.9528C27.1654 20.1047 27.2702 20.3869 27.2702 20.7993V22.0147C27.2702 22.4488 27.1654 22.7309 26.9977 22.8828C26.83 23.0347 26.4946 23.0998 26.0124 23.0998Z" fill="white"/>
<path d="M31.1908 15.619C32.1897 15.619 33 14.8089 33 13.8095C33 12.8102 32.1897 12 31.1908 12C30.1912 12 29.3809 12.8102 29.3809 13.8095C29.3809 14.8089 30.1912 15.619 31.1908 15.619Z" fill="#F41240"/>
</svg>
